<?xml version="1.0" encoding="UTF-8"?>
<!DOCTYPE svg PUBLIC "-//W3C//DTD SVG 1.1//EN" "http://www.w3.org/Graphics/SVG/1.1/DTD/svg11.dtd">
<!-- Creator: CorelDRAW X7 -->
<svg xmlns="http://www.w3.org/2000/svg" xml:space="preserve" width="169.333mm" height="169.333mm" version="1.1" style="shape-rendering:geometricPrecision; text-rendering:geometricPrecision; image-rendering:optimizeQuality; fill-rule:evenodd; clip-rule:evenodd"
viewBox="0 0 16933 16933"
 xmlns:xlink="http://www.w3.org/1999/xlink">
 <defs>
  <style type="text/css">
   <![CDATA[
    .fil0 {fill:#1298C8}
   ]]>
  </style>
 </defs>
 <g id="Layer_x0020_1">
  <metadata id="CorelCorpID_0Corel-Layer"/>
  <g id="_399313016">
   <path class="fil0" d="M3299 3389c-819,268 -1554,1200 -976,2363 938,1878 6466,-7 5315,5595 -170,824 -799,2070 -568,2946 206,784 1332,1470 2335,956 2014,-1030 -289,-3595 -113,-5797 205,-2603 2341,-2233 4411,-2918 2500,-827 280,-4694 -1665,-2813 -1141,1102 -1436,3415 -4477,2650 -2244,-565 -2005,-3726 -4262,-2982l0 0z"/>
   <path class="fil0" d="M11866 8538c-2063,810 -872,3862 1222,3095 1991,-731 972,-3956 -1222,-3095z"/>
   <path class="fil0" d="M7687 1759c-2151,1195 -263,3821 1477,2948 1837,-922 625,-4115 -1477,-2948z"/>
   <path class="fil0" d="M3670 8609c-1043,535 -1163,1502 -752,2266 370,682 1335,1136 2230,686 1757,-883 644,-4039 -1478,-2952l0 0z"/>
  </g>
 </g>
</svg>
